# xmcd CD database file
#
# Track frame offsets:
#	150
#	28330
#	60587
#	102887
#	128015
#	149837
#	173687
#	245012
#	281390
#	309892
#
# Disc length: 4344 seconds
#
# Revision: 0
# Processed by: cddbd v1.5.1PL0 Copyright (c) Steve Scherf et al.
# Submitted via: CDex 1.51
#
DISCID=8b10f60a
DTITLE=RIAS Big Band Berlin - RBB presents Helmut Brandt
DYEAR=1997
DGENRE=Jazz
TTITLE0=Berlin Calling
TTITLE1=Julia
TTITLE2=Einleitung, Thema, Improvisation und Fugato
TTITLE3=Winter-Impressionen
TTITLE4=LEO
TTITLE5=Jojo's Love
TTITLE6=Prager Impressionen
TTITLE7=Double-Bar Blues
TTITLE8=Painted Autumn
TTITLE9=Come Rain Come Shine
EXTD=YEAR: 1997
EXTT0=
EXTT1=
EXTT2=
EXTT3=
EXTT4=
EXTT5=
EXTT6=
EXTT7=
EXTT8=
EXTT9=
PLAYORDER=
